<svg xmlns="http://www.w3.org/2000/svg" viewBox="120 45 585 480" fill="none">
  <g fill="#87cedf">
    <path d="M209.87,216.51v88.81l.8-.17,26.34-98.16,28.34-9.94-29.14,111.42,31.53,125.24h-28.74l-28.34-106.85-.8.14v106.71h-29.13v-206.99l29.13-10.22Z"/>
    <path d="M377.9,182.53v226.67c0,13.57-10.38,24.51-23.15,24.51h-49.49c-12.77,0-23.15-9.61-23.15-21.52v-199.1c0-11.92,10.38-25.55,23.15-30.03l49.49-17.35c12.77-4.48,23.15,3.26,23.15,16.83ZM348.76,194.35l-37.52,11.84v202.68l37.52-1.29v-213.23Z"/>
    <path d="M430.98,138.97v265.78l33.53-1.16v30.11h-63.06V149.33l29.53-10.36Z"/>
    <path d="M578.25,118.62v284.35c0,17.02-10.38,30.74-23.15,30.74h-49.49c-12.77,0-23.15-12.39-23.15-27.76V149.18c0-15.37,10.38-31.89,23.15-36.37l49.49-17.35c12.77-4.48,23.15,6.16,23.15,23.17ZM549.11,131.11l-37.52,11.84v259.02l37.52-1.29V131.11Z"/>
    <path d="M661.26,58.22v37.49l-18.36,5.8v332.2h-29.53V110.83l-18.36,5.8v-35.17l66.25-23.23Z"/>
  </g>
  <text x="415" y="505" fill="#87cedf" font-family="Arial, Helvetica, sans-serif" font-size="66" font-weight="700" letter-spacing="10" text-anchor="middle">TURN IT UP.</text>
</svg>
